<svg width="102" height="101" viewBox="0 0 102 101" fill="none" xmlns="http://www.w3.org/2000/svg">
    <g id="Logo">
        <rect id="Rectangle 2" x="12" y="11" width="90" height="90" fill="#BDDFCD" />
        <rect id="Rectangle 1" x="1" y="1" width="90" height="90" stroke="#40434D" stroke-width="2" />
        <path id="JDCN"
            d="M12.265 55.216C11.149 55.216 10.105 54.982 9.133 54.514C8.161 54.046 7.369 53.371 6.757 52.489L8.323 50.653C8.845 51.373 9.43 51.931 10.078 52.327C10.744 52.705 11.473 52.894 12.265 52.894C14.425 52.894 15.505 51.616 15.505 49.06V38.449H8.674V36.1H18.178V48.925C18.178 51.031 17.674 52.606 16.666 53.65C15.676 54.694 14.209 55.216 12.265 55.216ZM23.6778 55V36.1H31.6428C33.6588 36.1 35.4318 36.496 36.9618 37.288C38.5098 38.08 39.7068 39.187 40.5528 40.609C41.4168 42.031 41.8488 43.678 41.8488 45.55C41.8488 47.422 41.4168 49.069 40.5528 50.491C39.7068 51.913 38.5098 53.02 36.9618 53.812C35.4318 54.604 33.6588 55 31.6428 55H23.6778ZM26.3778 52.651H31.4808C33.0468 52.651 34.3968 52.354 35.5308 51.76C36.6828 51.166 37.5738 50.338 38.2038 49.276C38.8338 48.196 39.1488 46.954 39.1488 45.55C39.1488 44.128 38.8338 42.886 38.2038 41.824C37.5738 40.762 36.6828 39.934 35.5308 39.34C34.3968 38.746 33.0468 38.449 31.4808 38.449H26.3778V52.651ZM54.4354 55.216C52.9954 55.216 51.6634 54.982 50.4394 54.514C49.2334 54.028 48.1804 53.353 47.2804 52.489C46.3984 51.607 45.7054 50.581 45.2014 49.411C44.6974 48.241 44.4454 46.954 44.4454 45.55C44.4454 44.146 44.6974 42.859 45.2014 41.689C45.7054 40.519 46.4074 39.502 47.3074 38.638C48.2074 37.756 49.2604 37.081 50.4664 36.613C51.6904 36.127 53.0224 35.884 54.4624 35.884C55.9204 35.884 57.2614 36.136 58.4854 36.64C59.7274 37.126 60.7804 37.855 61.6444 38.827L59.8894 40.528C59.1694 39.772 58.3594 39.214 57.4594 38.854C56.5594 38.476 55.5964 38.287 54.5704 38.287C53.5084 38.287 52.5184 38.467 51.6004 38.827C50.7004 39.187 49.9174 39.691 49.2514 40.339C48.5854 40.987 48.0634 41.761 47.6854 42.661C47.3254 43.543 47.1454 44.506 47.1454 45.55C47.1454 46.594 47.3254 47.566 47.6854 48.466C48.0634 49.348 48.5854 50.113 49.2514 50.761C49.9174 51.409 50.7004 51.913 51.6004 52.273C52.5184 52.633 53.5084 52.813 54.5704 52.813C55.5964 52.813 56.5594 52.633 57.4594 52.273C58.3594 51.895 59.1694 51.319 59.8894 50.545L61.6444 52.246C60.7804 53.218 59.7274 53.956 58.4854 54.46C57.2614 54.964 55.9114 55.216 54.4354 55.216ZM65.4961 55V36.1H67.7101L80.2111 51.625H79.0501V36.1H81.7501V55H79.5361L67.0351 39.475H68.1961V55H65.4961Z"
            fill="#40434D" />
    </g>
</svg>